# xmcd
#
# Track frame offsets:
#	150
#	6502
#	28810
#	54797
#	76397
#	91399
#	116161
#	135466
#	161213
#	176183
#	202431
#	222368
#	249630
#	273068
#	294196
#	304408
#
# Disc length: 4323 seconds
#
# Revision: 0
# Processed by: cddbd v1.4PL0 Copyright (c) Steve Scherf et al.
# Submitted via: dBpowerAMP V4.0
#
DISCID=ef10e110
DTITLE=Mike Oldfield - Greatest Hits cd 2
DYEAR=1900
DGENRE=Blues
TTITLE0=in the beginning
TTITLE1=let there be light
TTITLE2=weightless
TTITLE3=the great plain
TTITLE4=secrets
TTITLE5=far above the clouds
TTITLE6=tubular bells
TTITLE7=dark island
TTITLE8=oceania
TTITLE9=ascension
TTITLE10=the voyager
TTITLE11=flowers of the forest
TTITLE12=altered swtate
TTITLE13=the inner child
TTITLE14=dark star
TTITLE15=heaven's open
EXTD=
EXTT0=
EXTT1=
EXTT2=
EXTT3=
EXTT4=
EXTT5=
EXTT6=
EXTT7=
EXTT8=
EXTT9=
EXTT10=
EXTT11=
EXTT12=
EXTT13=
EXTT14=
EXTT15=
PLAYORDER=
